#!OML:ASF E:\motion texture\Top Level 1\Subject 1\Session 1\male.ASF
:FULLY-SPECIFIED
:DEGREES
321
root -14.0909 18.2982 4.56902 694.393 -85.5781 -698.097
lowerback 8.13056 -5.97439 -4.09536
upperback 0.105464 -8.29498 1.52005
thorax -3.61187 -4.04846 4.72105
lowerneck -18.429 -4.04647 -6.50473
upperneck 14.1725 -5.58135 9.29437
head 7.86199 -2.15345 3.47338
rclavicle -1.45982e-015 -1.98785e-015
rhumerus -64.2477 -8.91525 -46.0051
rradius 26.5775
rwrist 14.5882
rhand -8.94744 -7.44786
rfingers 7.12502
rthumb 16.997 -36.7242
lclavicle -1.45982e-015 -1.98785e-015
lhumerus 1.1299 -20.9413 89.5985
lradius 67.1662
lwrist -2.60156
lhand -14.096 9.12264
lfingers 7.12502
lthumb 12.0365 38.7565
rfemur -83.4356 -3.77646 20.1252
rtibia 84.6007
rfoot 556.69 -35.4266
rtoes 18.2416
lfemur 6.62459 -8.0906 -26.421
ltibia 18.1701
lfoot 532.049 174.354
ltoes -3.01474
322
root -14.2298 18.3095 4.56217 694.127 -85.5133 -697.712
lowerback 8.14702 -6.02167 -4.11341
upperback 0.108247 -8.36009 1.52404
thorax -3.60813 -4.08071 4.74203
lowerneck -18.5005 -4.00902 -6.44856
upperneck 14.1375 -5.53038 9.25787
head 7.85563 -2.1278 3.45754
rclavicle 9.01799e-014 -8.74653e-015
rhumerus -64.1709 -8.96334 -46.3776
rradius 26.8145
rwrist 14.1986
rhand -9.01198 -7.44263
rfingers 7.12502
rthumb 16.9349 -36.7243
lclavicle 9.01799e-014 -8.74653e-015
lhumerus 0.881896 -20.7113 89.6368
lradius 67.4486
lwrist -2.50775
lhand -14.0783 9.12555
lfingers 7.12502
lthumb 12.0536 38.7584
rfemur -83.8237 -3.6638 20.1449
rtibia 86.6009
rfoot 556.399 -48.4906
rtoes 18.144
lfemur 6.83422 -8.17274 -26.4234
ltibia 18.3389
lfoot 532.212 174.048
ltoes -3.62172
323
root -14.3686 18.3185 4.55587 693.791 -85.435 -697.221
lowerback 8.13907 -6.06352 -4.13724
upperback 0.101201 -8.41752 1.52868
thorax -3.60092 -4.10893 4.76379
lowerneck -18.5669 -3.97929 -6.39936
upperneck 14.0904 -5.48569 9.21327
head 7.84492 -2.10648 3.43926
rclavicle -5.70015e-014 -5.56597e-015
rhumerus -64.0395 -8.9876 -46.8835
rradius 27.0978
rwrist 13.7534
rhand -9.07043 -7.44533
rfingers 7.12502
rthumb 16.8786 -36.7318
lclavicle -5.70015e-014 -5.56597e-015
lhumerus 0.580179 -20.4836 89.7148
lradius 67.6806
lwrist -2.45792
lhand -14.0945 9.1437
lfingers 7.12502
lthumb 12.038 38.7775
rfemur -84.0847 -3.59257 20.1424
rtibia 88.16
rfoot 555.945 -61.6237
rtoes 18.0326
lfemur 7.00376 -8.26895 -26.4425
ltibia 18.5172
lfoot 532.372 173.743
ltoes -4.23489
324
root -14.5075 18.3248 4.54981 693.385 -85.3502 -696.641
lowerback 8.11175 -6.09742 -4.17017
upperback 0.0892187 -8.46439 1.5344
thorax -3.58768 -4.13185 4.78854
lowerneck -18.6208 -3.95767 -6.36249
upperneck 14.0226 -5.44874 9.1737
head 7.82636 -2.08962 3.42362
rclavicle -4.62299e-014 3.97569e-015
rhumerus -63.8568 -8.9928 -47.5085
rradius 27.4286
rwrist 13.278
rhand -9.12586 -7.46521
rfingers 7.12502
rthumb 16.8253 -36.7563
lclavicle -4.62299e-014 3.97569e-015
lhumerus 0.223456 -20.2596 89.8325
lradius 67.8596
lwrist -2.4538
lhand -14.1362 9.18707
lfingers 7.12502
lthumb 11.9977 38.8232
rfemur -84.2085 -3.55116 20.1199
rtibia 89.0966
rfoot 554.696 -74.8359
rtoes 17.9313
lfemur 7.16192 -8.35868 -26.4696
ltibia 18.683
lfoot 532.526 173.44
ltoes -4.8552
325
root -14.6469 18.3285 4.54382 692.839 -85.265 -695.911
lowerback 8.07151 -6.12083 -4.21629
upperback 0.077386 -8.49803 1.5379
thorax -3.56691 -4.14825 4.81531
lowerneck -18.6631 -3.94432 -6.33532
upperneck 13.9334 -5.42074 9.14089
head 7.79997 -2.07749 3.41059
rclavicle 3.49737e-014 -7.95139e-016
rhumerus -63.6221 -9.00494 -48.2186
rradius 27.795
rwrist 12.8222
rhand -9.1736 -7.49491
rfingers 7.12502
rthumb 16.7793 -36.7899
lclavicle 3.49737e-014 -7.95139e-016
lhumerus -0.178979 -20.0429 89.9818
lradius 67.9818
lwrist -2.46615
lhand -14.1975 9.24935
lfingers 7.12502
lthumb 11.9387 38.8889
rfemur -84.1843 -3.52747 20.0699
rtibia 89.3108
rfoot 535.311 -88.0284
rtoes 17.782
lfemur 7.33006 -8.42097 -26.5045
ltibia 18.8238
lfoot 532.668 173.136
ltoes -5.47079
326
root -14.7869 18.3293 4.53763 692.265 -85.1906 -695.148
lowerback 8.0212 -6.13251 -4.26458
upperback 0.0649352 -8.51581 1.54041
thorax -3.54269 -4.15685 4.83967
lowerneck -18.6842 -3.93731 -6.31819
upperneck 13.8259 -5.40114 9.12125
head 7.76538 -2.06951 3.40256
rclavicle -7.33018e-015 7.95139e-015
rhumerus -63.3445 -9.02486 -49.0014
rradius 28.195
rwrist 12.3981
rhand -9.23007 -7.54128
rfingers 7.12502
rthumb 16.725 -36.8408
lclavicle -7.33018e-015 7.95139e-015
lhumerus -0.633612 -19.8347 90.1583
lradius 68.0496
lwrist -2.46846
lhand -14.2563 9.333
lfingers 7.12502
lthumb 11.882 38.9759
rfemur -84.011 -3.50546 20.0033
rtibia 88.78
rfoot 381.24 -78.4086
rtoes 17.5973
lfemur 7.52267 -8.44341 -26.528
ltibia 18.9274
lfoot 532.793 172.829
ltoes -6.10448
327
root -14.9281 18.3273 4.53088 691.719 -85.1327 -694.409
lowerback 7.95029 -6.13232 -4.31205
upperback 0.0607917 -8.51674 1.54267
thorax -3.50029 -4.15798 4.85861
lowerneck -18.6937 -3.93588 -6.31053
upperneck 13.6988 -5.38973 9.12143
head 7.72395 -2.06475 3.40161
rclavicle 1.1404e-013 -1.35174e-014
rhumerus -63.0099 -9.07284 -49.8446
rradius 28.6124
rwrist 12.0218
rhand -9.29418 -7.55769
rfingers 7.12502
rthumb 16.6632 -36.8624
lclavicle 1.1404e-013 -1.35174e-014
lhumerus -1.12356 -19.6363 90.35
lradius 68.0638
lwrist -2.44152
lhand -14.2896 9.43039
lfingers 7.12502
lthumb 11.8499 39.0751
rfemur -83.6942 -3.47596 19.9248
rtibia 87.5635
rfoot 379.324 -64.978
rtoes 17.3391
lfemur 7.74511 -8.42628 -26.5308
ltibia 18.9836
lfoot 532.898 172.522
ltoes -6.76371
328
root -15.0705 18.3226 4.52344 691.233 -85.093 -693.72
lowerback 7.85731 -6.12082 -4.35328
upperback 0.0551563 -8.50106 1.54422
thorax -3.44998 -4.15122 4.86946
lowerneck -18.6824 -3.93793 -6.30691
upperneck 13.5639 -5.38513 9.13412
head 7.67749 -2.06304 3.40474
rclavicle 1.34428e-014 -5.1684e-015
rhumerus -62.6337 -9.13424 -50.7506
rradius 29.0511
rwrist 11.6689
rhand -9.39162 -7.55626
rfingers 7.12502
rthumb 16.5694 -36.8689
lclavicle 1.34428e-014 -5.1684e-015
lhumerus -1.65288 -19.4557 90.5509
lradius 68.0201
lwrist -2.35777
lhand -14.3046 9.5356
lfingers 7.12502
lthumb 11.8354 39.1811
rfemur -83.2476 -3.43438 19.8359
rtibia 85.7997
rfoot 378.828 -51.5266
rtoes 17.0206
lfemur 7.99067 -8.38209 -26.5119
ltibia 18.9919
lfoot 532.982 172.226
ltoes -7.42453
329
root -15.2142 18.3154 4.51542 690.8 -85.0637 -693.064
lowerback 7.73902 -6.10024 -4.38953
upperback 0.0409523 -8.47172 1.54526
thorax -3.39685 -4.13764 4.87354
lowerneck -18.6526 -3.94409 -6.31087
upperneck 13.429 -5.3878 9.15978
head 7.62922 -2.06461 3.41267
rclavicle -6.00827e-014 -1.98785e-015
rhumerus -62.2136 -9.21037 -51.7072
rradius 29.4996
rwrist 11.3227
rhand -9.50993 -7.5334
rfingers 7.12502
rthumb 16.4555 -36.8555
lclavicle -6.00827e-014 -1.98785e-015
lhumerus -2.22829 -19.2908 90.7637
lradius 67.9233
lwrist -2.21622
lhand -14.2804 9.64641
lfingers 7.12502
lthumb 11.8587 39.2906
rfemur -82.6891 -3.38816 19.7313
rtibia 83.6961
rfoot 378.724 -38.0992
rtoes 16.6733
lfemur 8.24515 -8.32922 -26.4816
ltibia 18.9558
lfoot 533.044 171.95
ltoes -8.04641
330
root -15.3595 18.306 4.5069 690.402 -85.0325 -692.411
lowerback 7.58242 -6.07498 -4.42754
upperback 0.0118329 -8.43464 1.5463
thorax -3.33859 -4.12001 4.87435
lowerneck -18.6032 -3.95325 -6.3162
upperneck 13.3011 -5.3959 9.18555
head 7.58041 -2.06934 3.42037
rclavicle 8.61483e-014 -1.59028e-015
rhumerus -61.7517 -9.27984 -52.7232
rradius 29.963
rwrist 10.9381
rhand -9.64063 -7.51522
rfingers 7.12502
rthumb 16.3297 -36.8477
lclavicle 8.61483e-014 -1.59028e-015
lhumerus -2.84983 -19.1402 90.9893
lradius 67.7667
lwrist -2.0249
lhand -14.2247 9.7608
lfingers 7.12502
lthumb 11.9124 39.4019
rfemur -82.0386 -3.34832 19.6004
rtibia 81.5138
rfoot 378.824 -24.7518
rtoes 16.391
lfemur 8.49591 -8.28508 -26.4536
ltibia 18.8792
lfoot 533.084 171.7
ltoes -8.62588
331
root -15.5061 18.2943 4.49809 689.965 -84.9903 -691.678
lowerback 7.38665 -6.04441 -4.47222
upperback -0.039725 -8.38944 1.54508
thorax -3.28222 -4.09762 4.8728
lowerneck -18.5424 -3.96595 -6.33011
upperneck 13.1976 -5.40916 9.21141
head 7.5384 -2.07698 3.42916
rclavicle 6.88043e-014 -7.15625e-015
rhumerus -61.2553 -9.34705 -53.7842
rradius 30.4442
rwrist 10.4995
rhand -9.76072 -7.54656
rfingers 7.12502
rthumb 16.2141 -36.8885
lclavicle 6.88043e-014 -7.15625e-015
lhumerus -3.52855 -19.0016 91.2371
lradius 67.5559
lwrist -1.79271
lhand -14.1468 9.85636
lfingers 7.12502
lthumb 11.9876 39.4931
rfemur -81.3127 -3.32141 19.4302
rtibia 79.529
rfoot 379.13 -11.4925
rtoes 16.1674
lfemur 8.72313 -8.2603 -26.4439
ltibia 18.7784
lfoot 533.091 171.483
ltoes -9.18451
332
root -15.6542 18.2802 4.4892 689.499 -84.9254 -690.866
lowerback 7.14953 -6.01276 -4.52654
upperback -0.123675 -8.34194 1.54176
thorax -3.23579 -4.07279 4.87168
lowerneck -18.4521 -3.98032 -6.34885
upperneck 13.1106 -5.42467 9.22872
head 7.49681 -2.08731 3.43597
rclavicle -4.25896e-014 1.74931e-014
rhumerus -60.7332 -9.39178 -54.8897
rradius 30.9455
rwrist 9.99223
rhand -9.87802 -7.63161
rfingers 7.12502
rthumb 16.1011 -36.9827
lclavicle -4.25896e-014 1.74931e-014
lhumerus -4.27257 -18.8677 91.5138
lradius 67.2814
lwrist -1.55587
lhand -14.0534 9.94325
lfingers 7.12502
lthumb 12.0776 39.5747
rfemur -80.5254 -3.31653 19.2111
rtibia 77.7322
rfoot 379.485 -11.0002
rtoes 16.1061
lfemur 8.91498 -8.26022 -26.4601
ltibia 18.6643
lfoot 533.063 171.294
ltoes -9.75264
333
root -15.8038 18.264 4.48042 688.998 -84.8276 -689.979
lowerback 6.87384 -5.98086 -4.59614
upperback -0.22965 -8.29373 1.53598
thorax -3.18911 -4.04688 4.87336
lowerneck -18.3576 -3.99917 -6.37139
upperneck 13.0425 -5.44419 9.2316
head 7.4607 -2.10083 3.4383
rclavicle 5.2181e-016 0
rhumerus -60.1734 -9.43281 -56.0214
rradius 31.4643
rwrist 9.43825
rhand -9.98392 -7.73975
rfingers 7.12502
rthumb 15.9991 -37.0991
lclavicle 5.2181e-016 0
lhumerus -5.06006 -18.7411 91.8145
lradius 66.9386
lwrist -1.33394
lhand -13.957 10.0226
lfingers 7.12502
lthumb 12.1706 39.6486
rfemur -79.671 -3.34721 18.9379
rtibia 75.9183
rfoot 379.927 -10.7816
rtoes 16.2631
lfemur 9.07764 -8.28977 -26.512
ltibia 18.5441
lfoot 533.004 171.128
ltoes -10.3217
